<svg width="100" height="45" viewBox="0 0 100 45" fill="none" xmlns="http://www.w3.org/2000/svg">
<path d="M0 11.1787V33.5426L19.567 44.7213V22.364L0 11.1787Z" fill="#6C7780"/>
<path d="M39.1344 11.1787V33.5426L19.5674 44.7213V22.364L39.1344 11.1787Z" fill="#858E95"/>
<path d="M19.567 0L39.1341 11.1786L19.567 22.3639L0 11.1786L19.567 0Z" fill="#A4AAB0"/>
<path d="M0 11.1787V33.5426L19.567 44.7213V22.364L0 11.1787Z" fill="#B47D2B"/>
<path d="M39.1344 11.1787V33.5426L19.5674 44.7213V22.364L39.1344 11.1787Z" fill="#F8B518"/>
<path d="M19.567 0L39.1341 11.1786L19.567 22.3639L0 11.1786L19.567 0Z" fill="#FFDC6C"/>
<path d="M31.5414 29.2042L19.5666 36.0516L7.58496 29.2042V15.5163L19.5666 8.66895L31.5414 15.5163V29.2042Z" fill="#231F20"/>
<path d="M12.501 18.3262V26.4015L19.5672 30.4391V22.3638L12.501 18.3262Z" fill="#6C7780"/>
<path d="M26.6336 18.3262V26.4015L19.5674 30.4391V22.3638L26.6336 18.3262Z" fill="#858E95"/>
<path d="M19.5672 14.2891L26.6335 18.3267L19.5672 22.3644L12.501 18.3267L19.5672 14.2891Z" fill="#A4AAB0"/>
<path d="M12.5003 40.6906L7.58496 37.881V22.9316H12.5003V40.6906Z" fill="#231F20"/>
<path d="M45.4453 25.1403V12.7738C45.4407 12.7388 45.4443 12.7032 45.456 12.6699C45.4677 12.6366 45.4871 12.6064 45.5126 12.5818C45.5381 12.5572 45.5691 12.5388 45.6031 12.5281C45.637 12.5174 45.6731 12.5147 45.7083 12.5202H49.619C49.9354 12.4987 50.2529 12.5401 50.5529 12.6422C50.8528 12.7442 51.1291 12.9047 51.3653 13.1141C51.5764 13.3481 51.7377 13.6217 51.8396 13.9186C51.9416 14.2156 51.9821 14.5299 51.9587 14.8427V18.7668C51.9791 19.0789 51.9366 19.3919 51.8335 19.6875C51.7305 19.9831 51.569 20.2555 51.3586 20.4887C51.1244 20.6993 50.8495 20.8605 50.5504 20.9626C50.2514 21.0647 49.9345 21.1056 49.619 21.0827H47.6636V25.1403C47.6694 25.1758 47.6666 25.2122 47.6555 25.2464C47.6443 25.2806 47.6251 25.3117 47.5994 25.3371C47.5737 25.3625 47.5423 25.3815 47.5078 25.3925C47.4732 25.4036 47.4365 25.4064 47.4007 25.4006H45.7083C45.6738 25.403 45.6393 25.3983 45.6068 25.3868C45.5743 25.3754 45.5446 25.3573 45.5195 25.3339C45.4947 25.3081 45.4754 25.2777 45.4627 25.2445C45.4499 25.2113 45.444 25.1759 45.4453 25.1403ZM47.6636 18.9604H49.093C49.1855 18.9787 49.2812 18.9741 49.3714 18.947C49.4617 18.9199 49.5438 18.8712 49.6105 18.8052C49.6772 18.7392 49.7264 18.6579 49.7538 18.5686C49.7811 18.4792 49.7858 18.3846 49.7673 18.293V15.2898C49.7841 15.1985 49.7782 15.1046 49.7503 15.016C49.7223 14.9274 49.6731 14.8469 49.6068 14.7813C49.5405 14.7156 49.4592 14.6669 49.3697 14.6393C49.2802 14.6116 49.1853 14.6058 49.093 14.6224H47.6636V18.9604Z" fill="#231F20"/>
<path d="M53.4151 25.1405V12.7739C53.4132 12.7055 53.4373 12.6388 53.4826 12.5871C53.5331 12.5438 53.5978 12.5201 53.6646 12.5203H59.6521C59.6873 12.5149 59.7233 12.5176 59.7572 12.5283C59.7912 12.539 59.8222 12.5574 59.8477 12.582C59.8732 12.6066 59.8926 12.6368 59.9043 12.6701C59.916 12.7034 59.9196 12.739 59.915 12.7739V14.389C59.915 14.5692 59.8274 14.6626 59.6521 14.6626H55.6065V17.8861H58.7283C58.7645 17.8815 58.8013 17.8854 58.8358 17.8973C58.8703 17.9092 58.9015 17.9289 58.927 17.9547C58.9524 17.9806 58.9715 18.012 58.9827 18.0464C58.9938 18.0808 58.9968 18.1173 58.9913 18.153V19.7481C58.9913 19.9349 58.9036 20.0217 58.7283 20.0217H55.5728V23.2785H59.6183C59.6921 23.2721 59.7659 23.291 59.8274 23.3319C59.8677 23.3907 59.8868 23.4613 59.8813 23.5321V25.1405C59.8871 25.176 59.8843 25.2123 59.8732 25.2465C59.862 25.2807 59.8428 25.3118 59.8171 25.3372C59.7914 25.3627 59.76 25.3817 59.7255 25.3927C59.6909 25.4038 59.6542 25.4065 59.6183 25.4008H53.6646C53.6313 25.4027 53.5979 25.3977 53.5666 25.3862C53.5352 25.3747 53.5066 25.357 53.4826 25.334C53.4374 25.2796 53.4134 25.2109 53.4151 25.1405Z" fill="#231F20"/>
<path d="M61.2099 25.1405V12.774C61.2053 12.739 61.209 12.7034 61.2207 12.6701C61.2324 12.6368 61.2517 12.6066 61.2773 12.582C61.3028 12.5574 61.3338 12.539 61.3677 12.5283C61.4017 12.5176 61.4377 12.5149 61.4729 12.5203H65.5589C65.8754 12.4985 66.193 12.5398 66.493 12.6418C66.793 12.7438 67.0693 12.9045 67.3053 13.1143C67.5172 13.3479 67.6796 13.6213 67.7827 13.9183C67.8857 14.2152 67.9275 14.5296 67.9054 14.8428V18.767C67.9617 19.1966 67.8808 19.6328 67.674 20.0146C67.4672 20.3964 67.145 20.7046 66.7524 20.896L67.8716 25.1138C67.9256 25.3074 67.8716 25.4008 67.6424 25.4008H65.9095C65.8426 25.4064 65.7761 25.3857 65.7244 25.3433C65.6727 25.3009 65.6399 25.24 65.6331 25.1739L64.5475 21.0828H63.4215V25.1405C63.4318 25.1779 63.4334 25.2171 63.4264 25.2552C63.4194 25.2933 63.4039 25.3293 63.3811 25.3607C63.3295 25.4068 63.2616 25.4308 63.1923 25.4275H61.4729C61.4373 25.4318 61.4012 25.428 61.3673 25.4165C61.3334 25.4049 61.3027 25.3859 61.2773 25.3608C61.252 25.3357 61.2327 25.3052 61.2211 25.2717C61.2094 25.2382 61.2056 25.2024 61.2099 25.1672V25.1405ZM63.4215 18.9606H65.0397C65.1322 18.9789 65.2279 18.9743 65.3181 18.9472C65.4084 18.9201 65.4905 18.8714 65.5572 18.8054C65.6239 18.7394 65.6731 18.6581 65.7005 18.5687C65.7278 18.4794 65.7325 18.3847 65.714 18.2932V15.29C65.7308 15.1987 65.7249 15.1047 65.697 15.0162C65.669 14.9276 65.6198 14.8471 65.5535 14.7814C65.4872 14.7158 65.4059 14.6671 65.3164 14.6394C65.2269 14.6118 65.132 14.606 65.0397 14.6226H63.4215V18.9606Z" fill="#231F20"/>
<path d="M69.3543 25.1405V12.7739C69.3519 12.7399 69.3566 12.7057 69.3682 12.6735C69.3798 12.6413 69.398 12.6119 69.4217 12.5871C69.4722 12.5438 69.5369 12.5201 69.6038 12.5203H75.5912C75.6264 12.5149 75.6624 12.5176 75.6964 12.5283C75.7303 12.539 75.7613 12.5574 75.7868 12.582C75.8124 12.6066 75.8317 12.6368 75.8434 12.6701C75.8551 12.7034 75.8588 12.739 75.8542 12.7739V14.389C75.8542 14.5692 75.7665 14.6626 75.5912 14.6626H71.5052V17.8861H74.627C74.6632 17.8815 74.7 17.8854 74.7345 17.8973C74.7689 17.9092 74.8001 17.9289 74.8256 17.9547C74.8511 17.9806 74.8702 18.012 74.8814 18.0464C74.8925 18.0808 74.8955 18.1173 74.89 18.153V19.7481C74.89 19.9349 74.8023 20.0217 74.627 20.0217H71.5052V23.2785H75.5912C75.665 23.2721 75.7388 23.291 75.8002 23.3319C75.8406 23.3907 75.8596 23.4613 75.8542 23.5321V25.1405C75.86 25.176 75.8572 25.2123 75.846 25.2465C75.8348 25.2807 75.8156 25.3118 75.79 25.3372C75.7643 25.3627 75.7329 25.3817 75.6983 25.3927C75.6638 25.4038 75.627 25.4065 75.5912 25.4008H69.6038C69.549 25.4052 69.4943 25.3911 69.4487 25.3607C69.4163 25.3342 69.3908 25.3003 69.3744 25.262C69.358 25.2237 69.3511 25.182 69.3543 25.1405Z" fill="#231F20"/>
<path d="M77.1426 25.1405V12.774C77.1379 12.739 77.1416 12.7034 77.1533 12.6701C77.165 12.6368 77.1844 12.6066 77.2099 12.582C77.2354 12.5574 77.2664 12.539 77.3003 12.5283C77.3343 12.5176 77.3703 12.5149 77.4055 12.5203H81.4983C81.8147 12.4985 82.1324 12.5398 82.4324 12.6418C82.7324 12.7438 83.0086 12.9045 83.2446 13.1143C83.4566 13.3479 83.6189 13.6213 83.722 13.9183C83.8251 14.2152 83.8668 14.5296 83.8447 14.8428V18.767C83.8987 19.2012 83.8123 19.6411 83.5979 20.0237C83.3835 20.4062 83.052 20.7116 82.6513 20.896L83.7773 25.1138C83.8245 25.3074 83.7773 25.4008 83.548 25.4008H81.8489C81.8156 25.4045 81.7819 25.4015 81.7498 25.392C81.7176 25.3825 81.6878 25.3666 81.662 25.3455C81.6362 25.3243 81.6149 25.2982 81.5996 25.2687C81.5842 25.2392 81.575 25.207 81.5725 25.1739L80.4802 21.0828H79.3609V25.1405C79.3622 25.176 79.3563 25.2115 79.3435 25.2447C79.3308 25.2779 79.3115 25.3083 79.2867 25.3341C79.2616 25.3575 79.2319 25.3755 79.1994 25.387C79.1669 25.3985 79.1323 25.4032 79.0979 25.4008H77.4055C77.3711 25.4032 77.3366 25.3985 77.3041 25.387C77.2716 25.3755 77.2418 25.3575 77.2167 25.3341C77.192 25.3083 77.1727 25.2779 77.1599 25.2447C77.1472 25.2115 77.1413 25.176 77.1426 25.1405ZM79.3609 18.9606H80.9724C81.0649 18.9789 81.1605 18.9743 81.2508 18.9472C81.341 18.9201 81.4232 18.8714 81.4899 18.8054C81.5566 18.7394 81.6058 18.6581 81.6331 18.5687C81.6605 18.4794 81.6651 18.3847 81.6466 18.2932V15.29C81.6634 15.1987 81.6576 15.1047 81.6296 15.0162C81.6017 14.9276 81.5524 14.8471 81.4861 14.7814C81.4199 14.7158 81.3385 14.6671 81.249 14.6394C81.1595 14.6118 81.0646 14.606 80.9724 14.6226H79.3609V18.9606Z" fill="#231F20"/>
<path d="M84.6533 12.8736C84.6533 12.8402 84.6533 12.8001 84.6533 12.7668C84.6533 12.6066 84.7545 12.5198 84.9567 12.5198H86.5075C86.5928 12.514 86.677 12.5403 86.7434 12.5936C86.8097 12.6469 86.8531 12.7231 86.8649 12.8068L88.5708 21.436L90.2969 12.8068C90.3071 12.7224 90.3501 12.6452 90.4168 12.5916C90.4835 12.538 90.5687 12.5123 90.6542 12.5198H92.1983C92.4006 12.5198 92.5017 12.6066 92.5017 12.7668C92.5048 12.8023 92.5048 12.838 92.5017 12.8736L89.744 25.1133C89.7322 25.1971 89.6888 25.2733 89.6225 25.3265C89.5561 25.3798 89.4718 25.4062 89.3866 25.4003H87.7684C87.6832 25.4062 87.5989 25.3798 87.5326 25.3265C87.4662 25.2733 87.4228 25.1971 87.411 25.1133L84.6533 12.8736Z" fill="#231F20"/>
<path d="M91.7002 25.127L94.3972 12.7404C94.4006 12.7079 94.4104 12.6764 94.4262 12.6476C94.4419 12.6189 94.4633 12.5936 94.489 12.5731C94.5147 12.5526 94.5443 12.5374 94.576 12.5283C94.6077 12.5192 94.6409 12.5164 94.6737 12.5201H96.9325C96.9983 12.5144 97.0639 12.5342 97.1154 12.5752C97.167 12.6163 97.2005 12.6755 97.2089 12.7404L99.9059 25.127C99.9092 25.1536 99.9092 25.1804 99.9059 25.207C99.9059 25.3405 99.825 25.4006 99.67 25.4006H97.9708C97.8292 25.4006 97.7483 25.3272 97.7146 25.1737L97.2494 22.8245H94.3972L93.9522 25.1737C93.9471 25.2368 93.9176 25.2956 93.8699 25.3378C93.8222 25.38 93.76 25.4025 93.696 25.4006H91.9564C91.8013 25.4006 91.7272 25.3472 91.7272 25.2271C91.7122 25.1955 91.7031 25.1616 91.7002 25.127ZM94.7613 20.9625H96.8381L95.8064 15.3498L94.7613 20.9625Z" fill="#231F20"/>
<path d="M45.5732 32.5352V28.8779H47.9332V29.5453H46.2475V32.5352H45.5732Z" fill="#231F20"/>
<path d="M48.2369 29.5449H50.5699V32.5348H48.21L48.2369 29.5449ZM48.9112 30.2123V31.8607H49.9226V30.219L48.9112 30.2123Z" fill="#231F20"/>
<path d="M51.2842 29.5449H53.6374V32.5348H51.9584V33.5359H51.2842V29.5449ZM51.9584 31.8674H52.9631V30.2123H51.9584V31.8674Z" fill="#231F20"/>
<path d="M54.3252 29.5449H56.6851V32.5348H54.3252V29.5449ZM54.9995 30.2123V31.8607H56.0108V30.219L54.9995 30.2123Z" fill="#231F20"/>
<path d="M57.1299 31.8677H57.5075V30.533L58.1345 29.5586H59.8674V31.8811H60.1978V33.2559H59.5235V32.5351H57.8041V33.2425H57.1299V31.8677ZM58.1885 30.7332V31.8677H59.1999V30.2126H58.5256L58.1885 30.7332Z" fill="#231F20"/>
<path d="M60.6836 32.5348V29.5449H62.7064V30.2123H61.3579V31.8674H62.7064V32.5348H60.6836Z" fill="#231F20"/>
<path d="M64.837 30.5393H65.6461V32.5415H64.9719V31.2067H63.9672V32.5415H63.293V29.5449H63.9672V30.5393L64.8168 29.5449H65.7001L64.837 30.5393Z" fill="#231F20"/>
<path d="M66.3818 29.5449H68.7755V32.5348H66.4156L66.3818 29.5449ZM67.0561 30.2123V31.8607H68.1012V30.219L67.0561 30.2123Z" fill="#231F20"/>
<path d="M69.4492 32.5344V29.5445H70.1235V31.3665L71.1214 29.5646H71.7956V32.5544H71.1214V30.7925L70.1235 32.5344H69.4492ZM69.9549 29.3643V28.4834H70.3797V28.9506H70.8989V28.4834H71.3372V29.3643H69.9549Z" fill="#231F20"/>
<path d="M75.1267 30.2123V32.5348H74.4525V30.2123H73.6299V29.5449H75.9426V30.2123H75.1267Z" fill="#231F20"/>
<path d="M76.4062 32.5348V29.5449H78.7662V31.5471H77.0873V31.8874H78.7662V32.5548L76.4062 32.5348ZM78.0852 30.2123H77.0873V30.8797H78.0852V30.2123Z" fill="#231F20"/>
<path d="M80.5538 31.6672L80.0076 32.5348H79.2188L80.1627 31.0465L79.2188 29.5449H80.0076L80.5538 30.4192L81.1067 29.5449H81.8956L80.9516 31.0465L81.8956 32.5348H81.1067L80.5538 31.6672Z" fill="#231F20"/>
<path d="M84.0334 32.5348V31.3068H83.0288V32.5348H82.3545V29.5449H83.0288V30.6394H84.0334V29.5449H84.7077V32.5348H84.0334Z" fill="#231F20"/>
<path d="M85.4014 29.5449H87.7613V32.5348H85.4014V29.5449ZM86.0756 30.2123V31.8607H87.087V30.219L86.0756 30.2123Z" fill="#231F20"/>
<path d="M89.1245 32.5348H88.4502V29.5449H90.8101V32.5348H90.1358V30.2123H89.1379L89.1245 32.5348Z" fill="#231F20"/>
<path d="M91.4834 32.5346V30.5325H93.1623V30.2055H91.5036V29.5381H93.8501V32.528L91.4834 32.5346ZM93.1623 31.1999H92.1644V31.8672H93.1623V31.1999Z" fill="#231F20"/>
<path d="M94.5322 29.5449H96.8921V32.5348H95.2065V33.5359H94.5322V29.5449ZM95.2065 31.8674H96.2111V30.2123H95.2065V31.8674Z" fill="#231F20"/>
<path d="M99.1164 30.5393H99.9255V32.5415H99.2513V31.2067H98.2534V32.5415H97.5791V29.5449H98.2534V30.5393L99.1164 29.5449H99.9997L99.1164 30.5393Z" fill="#231F20"/>
</svg>
