<svg width="94" height="106" viewBox="0 0 94 106" fill="none" xmlns="http://www.w3.org/2000/svg">
<g filter="url(#filter0_d)">
<path d="M47 0.556641L68.6506 13.0566V38.0566L47 50.5566L25.3494 38.0566V13.0566L47 0.556641Z" fill="#231F20"/>
</g>
<path d="M37 19.3075L47.0625 13.5566L57.125 19.3075V30.8058L47.0625 36.5566L37 30.8058V19.3075Z" fill="#FFC301"/>
<path d="M47.0558 17.9492L40.8984 21.4676V25.2741V28.501V33.0345L43.4245 34.4782V29.9447L47.0558 32.0194L53.2098 28.501V21.4676L47.0558 17.9492Z" fill="#231F20"/>
<path d="M50.6831 22.9087L47.0552 20.834L43.4238 22.9087V27.0581L47.0552 29.1328L50.6866 27.0581V22.9087H50.6831Z" fill="#FFC301"/>
<defs>
<filter id="filter0_d" x="0.349609" y="0.556641" width="93.3013" height="105" filterUnits="userSpaceOnUse" color-interpolation-filters="sRGB">
<feFlood flood-opacity="0" result="BackgroundImageFix"/>
<feColorMatrix in="SourceAlpha" type="matrix" values="0 0 0 0 0 0 0 0 0 0 0 0 0 0 0 0 0 0 127 0"/>
<feOffset dy="30"/>
<feGaussianBlur stdDeviation="12.5"/>
<feColorMatrix type="matrix" values="0 0 0 0 0 0 0 0 0 0 0 0 0 0 0 0 0 0 0.4 0"/>
<feBlend mode="normal" in2="BackgroundImageFix" result="effect1_dropShadow"/>
<feBlend mode="normal" in="SourceGraphic" in2="effect1_dropShadow" result="shape"/>
</filter>
</defs>
</svg>
