<svg width="251" height="139" viewBox="0 0 251 139" fill="none" xmlns="http://www.w3.org/2000/svg">
<g filter="url(#filter0_d)">
<rect x="25" width="201" height="76" rx="5" fill="white"/>
<rect x="181" y="75.7783" width="11" height="11" transform="rotate(-45 181 75.7783)" fill="white"/>
<path d="M56.028 29.678C55.812 30.47 55.392 31.076 54.768 31.496C54.156 31.904 53.418 32.108 52.554 32.108C51.99 32.108 51.48 32.018 51.024 31.838C50.568 31.646 50.184 31.388 49.872 31.064C49.56 30.728 49.32 30.332 49.152 29.876C48.984 29.42 48.9 28.916 48.9 28.364V23.108C48.9 22.58 48.978 22.088 49.134 21.632C49.302 21.176 49.542 20.786 49.854 20.462C50.166 20.126 50.55 19.862 51.006 19.67C51.462 19.478 51.978 19.382 52.554 19.382C53.406 19.382 54.138 19.592 54.75 20.012C55.374 20.432 55.8 21.02 56.028 21.776L54.606 22.334C54.486 21.878 54.252 21.512 53.904 21.236C53.568 20.96 53.118 20.822 52.554 20.822C52.206 20.822 51.894 20.888 51.618 21.02C51.354 21.14 51.132 21.302 50.952 21.506C50.772 21.71 50.634 21.95 50.538 22.226C50.442 22.502 50.394 22.784 50.394 23.072V28.4C50.394 28.7 50.442 28.988 50.538 29.264C50.634 29.54 50.772 29.786 50.952 30.002C51.132 30.206 51.354 30.374 51.618 30.506C51.894 30.626 52.206 30.686 52.554 30.686C53.094 30.686 53.538 30.548 53.886 30.272C54.246 29.996 54.486 29.624 54.606 29.156L56.028 29.678ZM57.5715 32V23.09H59.0295V26.96H60.0195C60.1875 26.96 60.3555 26.948 60.5235 26.924C60.6915 26.9 60.8475 26.846 60.9915 26.762C61.1475 26.666 61.2855 26.534 61.4055 26.366C61.5255 26.186 61.6275 25.952 61.7115 25.664L62.4495 23.09H63.8715L63.1155 25.682C62.9835 26.114 62.8155 26.48 62.6115 26.78C62.4195 27.068 62.1615 27.26 61.8375 27.356C62.2455 27.452 62.5395 27.656 62.7195 27.968C62.9115 28.28 63.0735 28.658 63.2055 29.102L64.0335 32H62.5755L61.9095 29.534C61.7415 28.958 61.5135 28.586 61.2255 28.418C60.9495 28.238 60.6135 28.148 60.2175 28.148H59.0295V32H57.5715ZM65.2574 32.27C65.1734 32.078 65.0894 31.892 65.0054 31.712C64.9214 31.52 64.8374 31.322 64.7534 31.118C65.0654 30.962 65.3234 30.806 65.5274 30.65C65.7314 30.494 65.8934 30.284 66.0134 30.02C66.1334 29.744 66.2174 29.384 66.2654 28.94C66.3134 28.484 66.3374 27.878 66.3374 27.122V23.09H71.8094V32H70.3334V24.368H67.7054V27.86C67.7054 28.604 67.6514 29.228 67.5434 29.732C67.4474 30.236 67.2974 30.656 67.0934 30.992C66.9014 31.328 66.6494 31.598 66.3374 31.802C66.0254 31.994 65.6654 32.15 65.2574 32.27ZM78.4193 31.316C78.2153 31.58 77.9273 31.778 77.5553 31.91C77.1953 32.042 76.7813 32.108 76.3133 32.108C75.8813 32.108 75.5033 32.042 75.1793 31.91C74.8553 31.766 74.5853 31.574 74.3693 31.334C74.1653 31.094 74.0093 30.818 73.9013 30.506C73.8053 30.182 73.7573 29.846 73.7573 29.498C73.7573 28.706 74.0033 28.052 74.4953 27.536C74.9873 27.008 75.7733 26.744 76.8533 26.744H78.4913V25.646C78.4913 25.238 78.3533 24.92 78.0773 24.692C77.8133 24.464 77.4173 24.35 76.8893 24.35C76.5413 24.35 76.2113 24.416 75.8993 24.548C75.5993 24.668 75.3833 24.884 75.2513 25.196C75.0593 25.088 74.8673 24.98 74.6753 24.872C74.4953 24.752 74.3093 24.632 74.1173 24.512C74.3573 24.02 74.7233 23.642 75.2153 23.378C75.7193 23.114 76.2773 22.982 76.8893 22.982C77.3093 22.982 77.7053 23.03 78.0773 23.126C78.4493 23.21 78.7733 23.354 79.0493 23.558C79.3373 23.762 79.5593 24.038 79.7153 24.386C79.8833 24.722 79.9673 25.148 79.9673 25.664V32H78.4913V31.352L78.4193 31.316ZM78.4913 27.986H76.7453C76.2773 27.986 75.8933 28.1 75.5933 28.328C75.2933 28.544 75.1433 28.904 75.1433 29.408C75.1433 29.804 75.2753 30.128 75.5393 30.38C75.8033 30.62 76.2053 30.74 76.7453 30.74C77.2493 30.74 77.6633 30.626 77.9873 30.398C78.3233 30.17 78.4913 29.774 78.4913 29.21V27.986ZM82.8254 34.322H81.4394V30.884L82.1414 30.722C82.3334 30.578 82.4834 30.422 82.5914 30.254C82.7114 30.074 82.8014 29.846 82.8614 29.57C82.9334 29.294 82.9874 28.946 83.0234 28.526C83.0594 28.094 83.1074 27.554 83.1674 26.906L83.3294 23.09H88.8554V30.722H89.6474V34.322H88.2614V32H82.8254V34.322ZM87.3974 24.368H84.6614L84.5354 26.942C84.4994 27.398 84.4694 27.818 84.4454 28.202C84.4214 28.574 84.3854 28.916 84.3374 29.228C84.3014 29.528 84.2474 29.804 84.1754 30.056C84.1154 30.296 84.0254 30.518 83.9054 30.722H87.3974V24.368ZM101.602 29.336C101.602 29.828 101.518 30.242 101.35 30.578C101.194 30.914 100.972 31.19 100.684 31.406C100.396 31.61 100.06 31.76 99.6756 31.856C99.2916 31.952 98.8776 32 98.4336 32H95.4456V23.09H98.5056C99.5016 23.09 100.24 23.318 100.72 23.774C101.2 24.218 101.44 24.806 101.44 25.538C101.44 25.922 101.356 26.27 101.188 26.582C101.032 26.882 100.762 27.134 100.378 27.338H100.396C100.84 27.506 101.152 27.77 101.332 28.13C101.512 28.49 101.602 28.892 101.602 29.336ZM96.9216 27.968V30.65H98.4336C98.9736 30.65 99.3936 30.536 99.6936 30.308C99.9936 30.08 100.144 29.738 100.144 29.282C100.144 28.898 100.024 28.586 99.7836 28.346C99.5436 28.094 99.1296 27.968 98.5416 27.968H96.9216ZM96.9216 24.368V26.798H98.3796C98.9196 26.798 99.3216 26.72 99.5856 26.564C99.8496 26.396 99.9816 26.06 99.9816 25.556C99.9816 25.184 99.8556 24.896 99.6036 24.692C99.3516 24.476 98.9496 24.368 98.3976 24.368H96.9216ZM104.82 23.936C105.084 23.6 105.384 23.36 105.72 23.216C106.056 23.06 106.434 22.982 106.854 22.982C107.442 22.982 107.91 23.108 108.258 23.36C108.606 23.6 108.876 23.93 109.068 24.35C109.26 24.758 109.386 25.238 109.446 25.79C109.506 26.342 109.536 26.918 109.536 27.518C109.536 28.082 109.5 28.64 109.428 29.192C109.368 29.732 109.236 30.218 109.032 30.65C108.828 31.082 108.54 31.43 108.168 31.694C107.796 31.958 107.31 32.09 106.71 32.09C105.966 32.09 105.336 31.796 104.82 31.208H104.784V35.6H103.326V23.09H104.784V23.918C104.796 23.918 104.802 23.924 104.802 23.936C104.802 23.936 104.808 23.936 104.82 23.936ZM106.386 30.65C106.758 30.65 107.052 30.566 107.268 30.398C107.484 30.23 107.652 30.008 107.772 29.732C107.892 29.444 107.97 29.114 108.006 28.742C108.042 28.37 108.06 27.974 108.06 27.554C108.06 27.122 108.042 26.714 108.006 26.33C107.97 25.946 107.892 25.61 107.772 25.322C107.664 25.034 107.502 24.806 107.286 24.638C107.07 24.458 106.776 24.368 106.404 24.368C105.972 24.368 105.642 24.482 105.414 24.71C105.186 24.926 105.024 25.202 104.928 25.538C104.832 25.874 104.778 26.246 104.766 26.654C104.766 27.05 104.766 27.422 104.766 27.77C104.766 28.094 104.778 28.424 104.802 28.76C104.838 29.096 104.91 29.408 105.018 29.696C105.126 29.972 105.288 30.2 105.504 30.38C105.72 30.56 106.014 30.65 106.386 30.65ZM117.359 30.398C117.119 30.926 116.759 31.346 116.279 31.658C115.811 31.958 115.277 32.108 114.677 32.108C114.077 32.108 113.567 32.024 113.147 31.856C112.727 31.688 112.379 31.424 112.103 31.064C111.839 30.692 111.641 30.218 111.509 29.642C111.389 29.066 111.329 28.37 111.329 27.554C111.329 26.99 111.371 26.438 111.455 25.898C111.551 25.346 111.713 24.854 111.941 24.422C112.181 23.99 112.505 23.642 112.913 23.378C113.321 23.114 113.843 22.982 114.479 22.982C115.487 22.982 116.255 23.306 116.783 23.954C117.323 24.59 117.593 25.472 117.593 26.6V27.986H112.787C112.787 28.382 112.811 28.754 112.859 29.102C112.907 29.438 112.997 29.732 113.129 29.984C113.261 30.236 113.447 30.434 113.687 30.578C113.927 30.722 114.239 30.794 114.623 30.794C114.947 30.794 115.241 30.692 115.505 30.488C115.781 30.284 116.003 30.044 116.171 29.768L117.359 30.398ZM116.153 26.816C116.153 26 116.009 25.388 115.721 24.98C115.445 24.56 115.037 24.35 114.497 24.35C113.873 24.35 113.441 24.572 113.201 25.016C112.973 25.46 112.847 26.06 112.823 26.816H116.153ZM126.266 32V26.15H126.248C126.128 26.402 126.008 26.654 125.888 26.906C125.78 27.158 125.66 27.404 125.528 27.644C125.288 28.1 125.054 28.55 124.826 28.994C124.598 29.426 124.37 29.87 124.142 30.326H123.206L122.018 28.04L121.1 26.222H121.082V32H119.606V23.09H121.028L122.486 25.916C122.69 26.324 122.888 26.726 123.08 27.122C123.272 27.506 123.476 27.896 123.692 28.292H123.71L124.88 25.916L126.338 23.09H127.742V32H126.266ZM135.675 30.398C135.435 30.926 135.075 31.346 134.595 31.658C134.127 31.958 133.593 32.108 132.993 32.108C132.393 32.108 131.883 32.024 131.463 31.856C131.043 31.688 130.695 31.424 130.419 31.064C130.155 30.692 129.957 30.218 129.825 29.642C129.705 29.066 129.645 28.37 129.645 27.554C129.645 26.99 129.687 26.438 129.771 25.898C129.867 25.346 130.029 24.854 130.257 24.422C130.497 23.99 130.821 23.642 131.229 23.378C131.637 23.114 132.159 22.982 132.795 22.982C133.803 22.982 134.571 23.306 135.099 23.954C135.639 24.59 135.909 25.472 135.909 26.6V27.986H131.103C131.103 28.382 131.127 28.754 131.175 29.102C131.223 29.438 131.313 29.732 131.445 29.984C131.577 30.236 131.763 30.434 132.003 30.578C132.243 30.722 132.555 30.794 132.939 30.794C133.263 30.794 133.557 30.692 133.821 30.488C134.097 30.284 134.319 30.044 134.487 29.768L135.675 30.398ZM134.469 26.816C134.469 26 134.325 25.388 134.037 24.98C133.761 24.56 133.353 24.35 132.813 24.35C132.189 24.35 131.757 24.572 131.517 25.016C131.289 25.46 131.163 26.06 131.139 26.816H134.469ZM142.426 32V28.076H139.204V32H137.728V23.09H139.204V26.87H142.426V23.09H143.902V32H142.426ZM150.837 32V28.076H147.615V32H146.139V23.09H147.615V26.87H150.837V23.09H152.313V32H150.837ZM157.61 22.982C158.318 22.982 158.876 23.126 159.284 23.414C159.692 23.69 160.016 24.038 160.256 24.458C160.34 24.602 160.412 24.794 160.472 25.034C160.532 25.262 160.58 25.52 160.616 25.808C160.652 26.084 160.676 26.378 160.688 26.69C160.712 26.99 160.724 27.278 160.724 27.554C160.724 27.722 160.718 27.926 160.706 28.166C160.694 28.406 160.67 28.658 160.634 28.922C160.61 29.186 160.58 29.438 160.544 29.678C160.508 29.918 160.466 30.11 160.418 30.254C160.31 30.602 160.148 30.896 159.932 31.136C159.728 31.376 159.488 31.568 159.212 31.712C158.948 31.856 158.66 31.958 158.348 32.018C158.048 32.09 157.736 32.126 157.412 32.126C156.728 32.126 156.164 31.982 155.72 31.694C155.288 31.406 154.964 31.034 154.748 30.578C154.592 30.254 154.484 29.828 154.424 29.3C154.364 28.76 154.334 28.196 154.334 27.608C154.334 27.044 154.358 26.504 154.406 25.988C154.466 25.472 154.562 25.052 154.694 24.728C154.934 24.188 155.3 23.762 155.792 23.45C156.284 23.138 156.89 22.982 157.61 22.982ZM157.574 24.296C157.226 24.296 156.914 24.38 156.638 24.548C156.362 24.716 156.158 24.968 156.026 25.304C155.942 25.532 155.876 25.862 155.828 26.294C155.792 26.714 155.774 27.206 155.774 27.77C155.774 28.166 155.78 28.538 155.792 28.886C155.816 29.234 155.876 29.528 155.972 29.768C156.104 30.092 156.296 30.344 156.548 30.524C156.8 30.704 157.118 30.794 157.502 30.794C157.874 30.794 158.198 30.704 158.474 30.524C158.762 30.344 158.972 30.056 159.104 29.66C159.164 29.492 159.206 29.21 159.23 28.814C159.254 28.406 159.266 27.956 159.266 27.464C159.266 27.044 159.254 26.648 159.23 26.276C159.206 25.892 159.158 25.592 159.086 25.376C158.954 25.016 158.756 24.746 158.492 24.566C158.228 24.386 157.922 24.296 157.574 24.296ZM164.26 24.368V32H162.802V23.09H168.346V24.368H164.26ZM172.199 22.982C172.907 22.982 173.465 23.126 173.873 23.414C174.281 23.69 174.605 24.038 174.845 24.458C174.929 24.602 175.001 24.794 175.061 25.034C175.121 25.262 175.169 25.52 175.205 25.808C175.241 26.084 175.265 26.378 175.277 26.69C175.301 26.99 175.313 27.278 175.313 27.554C175.313 27.722 175.307 27.926 175.295 28.166C175.283 28.406 175.259 28.658 175.223 28.922C175.199 29.186 175.169 29.438 175.133 29.678C175.097 29.918 175.055 30.11 175.007 30.254C174.899 30.602 174.737 30.896 174.521 31.136C174.317 31.376 174.077 31.568 173.801 31.712C173.537 31.856 173.249 31.958 172.937 32.018C172.637 32.09 172.325 32.126 172.001 32.126C171.317 32.126 170.753 31.982 170.309 31.694C169.877 31.406 169.553 31.034 169.337 30.578C169.181 30.254 169.073 29.828 169.013 29.3C168.953 28.76 168.923 28.196 168.923 27.608C168.923 27.044 168.947 26.504 168.995 25.988C169.055 25.472 169.151 25.052 169.283 24.728C169.523 24.188 169.889 23.762 170.381 23.45C170.873 23.138 171.479 22.982 172.199 22.982ZM172.163 24.296C171.815 24.296 171.503 24.38 171.227 24.548C170.951 24.716 170.747 24.968 170.615 25.304C170.531 25.532 170.465 25.862 170.417 26.294C170.381 26.714 170.363 27.206 170.363 27.77C170.363 28.166 170.369 28.538 170.381 28.886C170.405 29.234 170.465 29.528 170.561 29.768C170.693 30.092 170.885 30.344 171.137 30.524C171.389 30.704 171.707 30.794 172.091 30.794C172.463 30.794 172.787 30.704 173.063 30.524C173.351 30.344 173.561 30.056 173.693 29.66C173.753 29.492 173.795 29.21 173.819 28.814C173.843 28.406 173.855 27.956 173.855 27.464C173.855 27.044 173.843 26.648 173.819 26.276C173.795 25.892 173.747 25.592 173.675 25.376C173.543 25.016 173.345 24.746 173.081 24.566C172.817 24.386 172.511 24.296 172.163 24.296ZM53.31 54L51.564 50.58L49.8 54H48.162L50.772 49.428L48.288 45.09H49.926L51.564 48.348L53.184 45.09H54.822L52.338 49.446L54.948 54H53.31ZM57.73 45.936C57.994 45.6 58.294 45.36 58.63 45.216C58.966 45.06 59.344 44.982 59.764 44.982C60.352 44.982 60.82 45.108 61.168 45.36C61.516 45.6 61.786 45.93 61.978 46.35C62.17 46.758 62.296 47.238 62.356 47.79C62.416 48.342 62.446 48.918 62.446 49.518C62.446 50.082 62.41 50.64 62.338 51.192C62.278 51.732 62.146 52.218 61.942 52.65C61.738 53.082 61.45 53.43 61.078 53.694C60.706 53.958 60.22 54.09 59.62 54.09C58.876 54.09 58.246 53.796 57.73 53.208H57.694V57.6H56.236V45.09H57.694V45.918C57.706 45.918 57.712 45.924 57.712 45.936C57.712 45.936 57.718 45.936 57.73 45.936ZM59.296 52.65C59.668 52.65 59.962 52.566 60.178 52.398C60.394 52.23 60.562 52.008 60.682 51.732C60.802 51.444 60.88 51.114 60.916 50.742C60.952 50.37 60.97 49.974 60.97 49.554C60.97 49.122 60.952 48.714 60.916 48.33C60.88 47.946 60.802 47.61 60.682 47.322C60.574 47.034 60.412 46.806 60.196 46.638C59.98 46.458 59.686 46.368 59.314 46.368C58.882 46.368 58.552 46.482 58.324 46.71C58.096 46.926 57.934 47.202 57.838 47.538C57.742 47.874 57.688 48.246 57.676 48.654C57.676 49.05 57.676 49.422 57.676 49.77C57.676 50.094 57.688 50.424 57.712 50.76C57.748 51.096 57.82 51.408 57.928 51.696C58.036 51.972 58.198 52.2 58.414 52.38C58.63 52.56 58.924 52.65 59.296 52.65ZM68.532 53.316C68.328 53.58 68.04 53.778 67.668 53.91C67.308 54.042 66.894 54.108 66.426 54.108C65.994 54.108 65.616 54.042 65.292 53.91C64.968 53.766 64.698 53.574 64.482 53.334C64.278 53.094 64.122 52.818 64.014 52.506C63.918 52.182 63.87 51.846 63.87 51.498C63.87 50.706 64.116 50.052 64.608 49.536C65.1 49.008 65.886 48.744 66.966 48.744H68.604V47.646C68.604 47.238 68.466 46.92 68.19 46.692C67.926 46.464 67.53 46.35 67.002 46.35C66.654 46.35 66.324 46.416 66.012 46.548C65.712 46.668 65.496 46.884 65.364 47.196C65.172 47.088 64.98 46.98 64.788 46.872C64.608 46.752 64.422 46.632 64.23 46.512C64.47 46.02 64.836 45.642 65.328 45.378C65.832 45.114 66.39 44.982 67.002 44.982C67.422 44.982 67.818 45.03 68.19 45.126C68.562 45.21 68.886 45.354 69.162 45.558C69.45 45.762 69.672 46.038 69.828 46.386C69.996 46.722 70.08 47.148 70.08 47.664V54H68.604V53.352L68.532 53.316ZM68.604 49.986H66.858C66.39 49.986 66.006 50.1 65.706 50.328C65.406 50.544 65.256 50.904 65.256 51.408C65.256 51.804 65.388 52.128 65.652 52.38C65.916 52.62 66.318 52.74 66.858 52.74C67.362 52.74 67.776 52.626 68.1 52.398C68.436 52.17 68.604 51.774 68.604 51.21V49.986ZM76.88 54V50.076H73.658V54H72.182V45.09H73.658V48.87H76.88V45.09H78.356V54H76.88ZM86.3528 52.398C86.1128 52.926 85.7528 53.346 85.2728 53.658C84.8048 53.958 84.2708 54.108 83.6708 54.108C83.0708 54.108 82.5608 54.024 82.1408 53.856C81.7208 53.688 81.3728 53.424 81.0968 53.064C80.8328 52.692 80.6348 52.218 80.5028 51.642C80.3828 51.066 80.3228 50.37 80.3228 49.554C80.3228 48.99 80.3648 48.438 80.4488 47.898C80.5448 47.346 80.7068 46.854 80.9348 46.422C81.1748 45.99 81.4988 45.642 81.9068 45.378C82.3148 45.114 82.8368 44.982 83.4728 44.982C84.4808 44.982 85.2488 45.306 85.7768 45.954C86.3168 46.59 86.5868 47.472 86.5868 48.6V49.986H81.7808C81.7808 50.382 81.8048 50.754 81.8528 51.102C81.9008 51.438 81.9908 51.732 82.1228 51.984C82.2548 52.236 82.4408 52.434 82.6808 52.578C82.9208 52.722 83.2328 52.794 83.6168 52.794C83.9408 52.794 84.2348 52.692 84.4988 52.488C84.7748 52.284 84.9968 52.044 85.1648 51.768L86.3528 52.398ZM85.1468 48.816C85.1468 48 85.0028 47.388 84.7148 46.98C84.4388 46.56 84.0308 46.35 83.4908 46.35C82.8668 46.35 82.4348 46.572 82.1948 47.016C81.9668 47.46 81.8408 48.06 81.8168 48.816H85.1468ZM93.1039 54V50.076H89.8819V54H88.4059V45.09H89.8819V48.87H93.1039V45.09H94.5799V54H93.1039ZM102.163 47.808L100.777 50.076L98.3467 54H96.9607V45.108H98.4547V51.462H98.4907L99.8227 49.248L102.343 45.108H103.747V54H102.235V47.808H102.163ZM105.944 47.808C105.944 47.016 106.184 46.368 106.664 45.864C107.144 45.348 107.828 45.09 108.716 45.09H112.1V54H110.642V50.292H109.184C108.824 50.304 108.518 50.4 108.266 50.58C108.026 50.76 107.84 51.12 107.708 51.66L107.15 54H105.656L106.304 51.408C106.388 51.084 106.508 50.784 106.664 50.508C106.832 50.232 107.06 50.034 107.348 49.914C106.844 49.746 106.484 49.47 106.268 49.086C106.052 48.69 105.944 48.264 105.944 47.808ZM107.402 47.808C107.402 48.228 107.534 48.546 107.798 48.762C108.062 48.978 108.434 49.086 108.914 49.086H110.642V46.386H108.95C108.47 46.386 108.092 46.512 107.816 46.764C107.54 47.004 107.402 47.352 107.402 47.808ZM123.361 53.172L121.255 49.824L123.361 46.476H124.765L122.713 49.824L124.765 53.172H123.361ZM120.355 53.172L118.249 49.824L120.355 46.476H121.759L119.689 49.824L121.759 53.172H120.355ZM133.896 51.678C133.68 52.47 133.26 53.076 132.636 53.496C132.024 53.904 131.286 54.108 130.422 54.108C129.858 54.108 129.348 54.018 128.892 53.838C128.436 53.646 128.052 53.388 127.74 53.064C127.428 52.728 127.188 52.332 127.02 51.876C126.852 51.42 126.768 50.916 126.768 50.364V45.108C126.768 44.58 126.846 44.088 127.002 43.632C127.17 43.176 127.41 42.786 127.722 42.462C128.034 42.126 128.418 41.862 128.874 41.67C129.33 41.478 129.846 41.382 130.422 41.382C131.274 41.382 132.006 41.592 132.618 42.012C133.242 42.432 133.668 43.02 133.896 43.776L132.474 44.334C132.354 43.878 132.12 43.512 131.772 43.236C131.436 42.96 130.986 42.822 130.422 42.822C130.074 42.822 129.762 42.888 129.486 43.02C129.222 43.14 129 43.302 128.82 43.506C128.64 43.71 128.502 43.95 128.406 44.226C128.31 44.502 128.262 44.784 128.262 45.072V50.4C128.262 50.7 128.31 50.988 128.406 51.264C128.502 51.54 128.64 51.786 128.82 52.002C129 52.206 129.222 52.374 129.486 52.506C129.762 52.626 130.074 52.686 130.422 52.686C130.962 52.686 131.406 52.548 131.754 52.272C132.114 51.996 132.354 51.624 132.474 51.156L133.896 51.678ZM140.947 47.808L139.561 50.076L137.131 54H135.745V45.108H137.239V51.462H137.275L138.607 49.248L141.127 45.108H142.531V54H141.019V47.808H140.947ZM147.824 46.368V54H146.384V46.368H144.062V45.108H150.182V46.368H147.824ZM156.907 47.808L155.521 50.076L153.091 54H151.705V45.108H153.199V51.462H153.235L154.567 49.248L157.087 45.108H158.491V54H156.979V47.808H156.907ZM160.851 50.004V48.726H165.765V50.004H160.851ZM169.583 52.596H171.599C172.379 52.596 172.937 52.392 173.273 51.984C173.609 51.576 173.777 51.018 173.777 50.31C173.777 50.022 173.741 49.746 173.669 49.482C173.597 49.206 173.477 48.966 173.309 48.762C173.141 48.558 172.913 48.396 172.625 48.276C172.349 48.156 172.001 48.096 171.581 48.096H169.583V52.596ZM169.583 46.692H171.617C172.265 46.692 172.823 46.782 173.291 46.962C173.759 47.142 174.137 47.388 174.425 47.7C174.725 48.012 174.947 48.39 175.091 48.834C175.235 49.266 175.307 49.74 175.307 50.256C175.307 51.492 174.989 52.428 174.353 53.064C173.729 53.688 172.835 54 171.671 54H168.071V41.472H174.299V42.858H169.583V46.692ZM180.205 44.982C180.913 44.982 181.471 45.126 181.879 45.414C182.287 45.69 182.611 46.038 182.851 46.458C182.935 46.602 183.007 46.794 183.067 47.034C183.127 47.262 183.175 47.52 183.211 47.808C183.247 48.084 183.271 48.378 183.283 48.69C183.307 48.99 183.319 49.278 183.319 49.554C183.319 49.722 183.313 49.926 183.301 50.166C183.289 50.406 183.265 50.658 183.229 50.922C183.205 51.186 183.175 51.438 183.139 51.678C183.103 51.918 183.061 52.11 183.013 52.254C182.905 52.602 182.743 52.896 182.527 53.136C182.323 53.376 182.083 53.568 181.807 53.712C181.543 53.856 181.255 53.958 180.943 54.018C180.643 54.09 180.331 54.126 180.007 54.126C179.323 54.126 178.759 53.982 178.315 53.694C177.883 53.406 177.559 53.034 177.343 52.578C177.187 52.254 177.079 51.828 177.019 51.3C176.959 50.76 176.929 50.196 176.929 49.608C176.929 49.044 176.953 48.504 177.001 47.988C177.061 47.472 177.157 47.052 177.289 46.728C177.529 46.188 177.895 45.762 178.387 45.45C178.879 45.138 179.485 44.982 180.205 44.982ZM180.169 46.296C179.821 46.296 179.509 46.38 179.233 46.548C178.957 46.716 178.753 46.968 178.621 47.304C178.537 47.532 178.471 47.862 178.423 48.294C178.387 48.714 178.369 49.206 178.369 49.77C178.369 50.166 178.375 50.538 178.387 50.886C178.411 51.234 178.471 51.528 178.567 51.768C178.699 52.092 178.891 52.344 179.143 52.524C179.395 52.704 179.713 52.794 180.097 52.794C180.469 52.794 180.793 52.704 181.069 52.524C181.357 52.344 181.567 52.056 181.699 51.66C181.759 51.492 181.801 51.21 181.825 50.814C181.849 50.406 181.861 49.956 181.861 49.464C181.861 49.044 181.849 48.648 181.825 48.276C181.801 47.892 181.753 47.592 181.681 47.376C181.549 47.016 181.351 46.746 181.087 46.566C180.823 46.386 180.517 46.296 180.169 46.296ZM185.236 54V45.09H186.694V48.96H187.684C187.852 48.96 188.02 48.948 188.188 48.924C188.356 48.9 188.512 48.846 188.656 48.762C188.812 48.666 188.95 48.534 189.07 48.366C189.19 48.186 189.292 47.952 189.376 47.664L190.114 45.09H191.536L190.78 47.682C190.648 48.114 190.48 48.48 190.276 48.78C190.084 49.068 189.826 49.26 189.502 49.356C189.91 49.452 190.204 49.656 190.384 49.968C190.576 50.28 190.738 50.658 190.87 51.102L191.698 54H190.24L189.574 51.534C189.406 50.958 189.178 50.586 188.89 50.418C188.614 50.238 188.278 50.148 187.882 50.148H186.694V54H185.236ZM197.746 51.822C197.95 51.942 198.154 52.056 198.358 52.164C198.562 52.26 198.766 52.368 198.97 52.488C198.73 52.992 198.376 53.388 197.908 53.676C197.44 53.964 196.882 54.108 196.234 54.108C195.562 54.108 195.01 53.994 194.578 53.766C194.146 53.538 193.804 53.22 193.552 52.812C193.3 52.392 193.126 51.888 193.03 51.3C192.934 50.712 192.886 50.064 192.886 49.356C192.886 48.024 193.156 46.962 193.696 46.17C194.236 45.378 195.082 44.982 196.234 44.982C196.882 44.982 197.434 45.132 197.89 45.432C198.358 45.72 198.712 46.116 198.952 46.62L197.764 47.358C197.632 47.046 197.434 46.806 197.17 46.638C196.906 46.458 196.6 46.368 196.252 46.368C195.856 46.368 195.532 46.446 195.28 46.602C195.028 46.758 194.83 46.974 194.686 47.25C194.554 47.514 194.464 47.832 194.416 48.204C194.368 48.564 194.344 48.96 194.344 49.392C194.344 49.824 194.368 50.244 194.416 50.652C194.464 51.048 194.554 51.402 194.686 51.714C194.83 52.026 195.022 52.278 195.262 52.47C195.514 52.65 195.838 52.74 196.234 52.74C196.594 52.74 196.9 52.65 197.152 52.47C197.416 52.278 197.614 52.062 197.746 51.822ZM200.423 53.172L202.475 49.824L200.423 46.476H201.827L203.933 49.824L201.827 53.172H200.423ZM203.429 53.172L205.499 49.824L203.429 46.476H204.833L206.939 49.824L204.833 53.172H203.429Z" fill="#231F20"/>
</g>
<defs>
<filter id="filter0_d" x="0" y="0" width="251" height="138.556" filterUnits="userSpaceOnUse" color-interpolation-filters="sRGB">
<feFlood flood-opacity="0" result="BackgroundImageFix"/>
<feColorMatrix in="SourceAlpha" type="matrix" values="0 0 0 0 0 0 0 0 0 0 0 0 0 0 0 0 0 0 127 0"/>
<feOffset dy="30"/>
<feGaussianBlur stdDeviation="12.5"/>
<feColorMatrix type="matrix" values="0 0 0 0 0 0 0 0 0 0 0 0 0 0 0 0 0 0 0.4 0"/>
<feBlend mode="normal" in2="BackgroundImageFix" result="effect1_dropShadow"/>
<feBlend mode="normal" in="SourceGraphic" in2="effect1_dropShadow" result="shape"/>
</filter>
</defs>
</svg>
